<?xml version="1.0" standalone="no"?>
<!DOCTYPE svg PUBLIC "-//W3C//DTD SVG 20010904//EN"
 "http://www.w3.org/TR/2001/REC-SVG-20010904/DTD/svg10.dtd">
<svg version="1.0" xmlns="http://www.w3.org/2000/svg"
 width="243.000000pt" height="210.000000pt" viewBox="0 0 243.000000 210.000000"
 preserveAspectRatio="xMidYMid meet">
<metadata>
Created by potrace 1.10, written by Peter Selinger 2001-2011
</metadata>
<g transform="translate(0.000000,210.000000) scale(0.100000,-0.100000)"
fill="#0f559f" stroke="none">
<path d="M386 2042 c-3 -9 -24 -25 -46 -35 -22 -9 -45 -27 -50 -40 -6 -12 -20
-37 -31 -56 -11 -19 -25 -62 -30 -94 -6 -33 -18 -76 -29 -96 -12 -25 -15 -42
-9 -52 5 -8 9 -26 9 -40 0 -15 13 -41 30 -60 16 -19 30 -39 30 -46 0 -6 6 -18
13 -25 6 -7 27 -35 46 -61 31 -45 33 -58 16 -99 -5 -12 4 -22 34 -40 32 -18
41 -29 41 -50 0 -16 -4 -28 -9 -28 -18 0 -18 -41 0 -75 22 -40 18 -98 -9 -153
-24 -46 -38 -40 -46 20 -4 29 -11 57 -15 63 -5 5 -11 29 -15 53 -3 24 -11 51
-16 60 -5 9 -12 34 -15 55 -7 47 -18 47 -103 1 -138 -75 -162 -107 -162 -219
0 -50 5 -86 12 -93 9 -9 116 -12 420 -12 l407 0 21 22 c27 30 35 62 22 96 -6
15 -14 41 -17 59 -8 41 -66 94 -142 129 -32 14 -69 32 -83 40 -37 19 -51 5
-67 -68 -8 -34 -21 -88 -28 -119 -15 -65 -36 -112 -50 -111 -5 0 -14 18 -18
39 -5 21 -13 46 -18 55 -15 28 -11 49 16 84 23 30 24 34 10 61 -22 41 -18 68
11 89 46 33 64 57 64 86 0 16 15 50 35 78 19 27 35 53 35 56 0 3 13 23 28 43
16 20 34 55 42 78 11 36 11 46 -4 76 -9 19 -16 44 -16 56 0 37 -29 134 -47
155 -38 46 -62 65 -106 85 -25 12 -52 21 -59 21 -7 0 -22 7 -32 15 -27 20 -63
19 -70 -3z"/>
<path d="M1886 2043 c-4 -10 -25 -27 -49 -38 -24 -12 -43 -28 -46 -40 -2 -11
-6 -22 -10 -25 -25 -19 -45 -72 -49 -132 -3 -40 -10 -72 -18 -79 -9 -7 -14
-33 -14 -69 0 -52 4 -62 30 -88 17 -17 30 -35 30 -40 0 -5 20 -37 45 -71 43
-58 56 -103 35 -116 -17 -10 -11 -19 30 -44 49 -31 53 -41 30 -82 -17 -33 -17
-35 2 -66 27 -45 17 -141 -18 -174 -13 -12 -24 -21 -25 -18 0 2 -7 29 -14 59
-7 30 -18 78 -25 105 -6 28 -15 58 -20 67 -6 10 -10 26 -10 37 0 30 -11 51
-26 51 -27 0 -147 -72 -192 -114 -32 -31 -47 -55 -54 -87 -15 -65 -14 -104 5
-133 l17 -26 408 0 c322 0 412 3 426 13 16 11 18 25 15 100 -4 82 -5 87 -38
121 -27 28 -129 87 -211 122 -3 2 -12 -1 -19 -5 -12 -8 -23 -46 -55 -196 -16
-71 -35 -115 -50 -115 -12 0 -36 93 -37 139 -1 13 9 37 21 54 22 28 22 31 6
57 -22 38 -20 65 7 83 52 35 67 54 67 89 0 20 7 41 16 48 15 13 81 117 116
183 21 40 23 94 3 113 -8 9 -15 32 -15 52 0 62 -40 157 -80 190 -25 20 -110
62 -128 62 -9 0 -26 7 -36 15 -27 20 -63 19 -70 -2z"/>
<path d="M1317 2024 c-4 -4 -7 -26 -7 -48 0 -65 -8 -70 -112 -78 -124 -9 -241
-27 -252 -38 -6 -6 -20 -10 -32 -10 -13 0 -30 -7 -38 -16 -49 -48 28 -119 92
-85 28 15 203 43 247 39 l40 -3 -3 -67 c-2 -51 1 -68 11 -68 7 0 17 4 23 9 5
5 30 14 57 20 26 6 68 16 95 22 26 6 52 15 57 19 6 4 29 11 52 15 44 7 67 24
55 40 -4 6 -52 50 -107 99 -55 50 -116 105 -136 123 -19 18 -38 30 -42 27z"/>
<path d="M1131 1128 c-4 -12 -28 -31 -52 -42 -27 -13 -49 -32 -58 -51 -8 -17
-17 -32 -21 -35 -14 -11 -40 -98 -40 -136 0 -27 -7 -49 -21 -65 -38 -43 -12
-109 111 -278 28 -39 31 -49 25 -87 -5 -37 -3 -45 12 -51 10 -4 28 -17 41 -28
20 -18 21 -25 12 -49 -14 -38 -13 -62 6 -102 13 -26 14 -40 6 -62 -6 -15 -13
-44 -17 -64 -3 -21 -10 -40 -15 -43 -12 -7 -44 64 -54 120 -4 22 -11 45 -16
50 -4 6 -10 29 -14 52 -8 57 -26 93 -45 93 -39 -1 -153 -72 -198 -124 -35 -39
-53 -90 -53 -152 0 -77 -17 -74 450 -74 l413 0 19 23 c17 18 19 31 14 77 -9
96 -51 150 -154 199 -26 13 -61 30 -78 38 -39 20 -60 13 -67 -24 -3 -15 -13
-57 -22 -93 -9 -36 -22 -91 -28 -122 -7 -31 -15 -59 -18 -63 -4 -3 -16 10 -28
29 -29 46 -33 136 -8 163 21 24 22 47 2 63 -28 23 -17 56 30 94 36 30 45 44
45 69 0 19 11 44 26 62 13 17 45 62 71 100 51 79 68 152 41 183 -9 9 -18 44
-21 77 -6 66 -33 128 -69 161 -27 25 -97 64 -115 64 -19 0 -83 33 -83 42 0 17
-21 7 -29 -14z"/>
<path d="M378 827 c-8 -12 -20 -47 -27 -77 -6 -30 -16 -73 -21 -95 -5 -22 -9
-59 -10 -82 0 -23 -4 -45 -10 -48 -5 -3 -10 -15 -10 -26 0 -14 7 -19 29 -19
17 0 33 5 36 10 3 6 21 10 38 10 26 0 39 -8 67 -42 33 -42 110 -120 144 -146
31 -24 73 -34 95 -22 42 22 23 64 -79 166 -39 40 -70 79 -68 86 3 7 21 17 42
21 55 14 57 34 5 79 -24 22 -83 78 -130 124 -86 83 -87 84 -101 61z"/>
<path d="M1996 827 c-18 -13 -41 -65 -53 -117 -6 -25 -58 -128 -72 -143 -4 -4
-29 11 -54 34 -32 28 -48 36 -52 27 -2 -7 -11 -35 -19 -63 -7 -27 -21 -74 -30
-104 -9 -29 -16 -61 -16 -70 0 -9 -7 -34 -15 -56 -8 -22 -14 -46 -15 -52 0
-15 23 -17 48 -4 9 5 51 19 92 31 41 12 84 26 95 30 11 5 35 12 53 15 18 4 46
14 64 22 l31 16 -49 43 -49 43 17 28 c20 33 58 110 68 138 45 119 50 160 23
181 -23 17 -45 17 -67 1z"/>
</g>
</svg>
