<?xml version="1.0" standalone="no"?>
<!DOCTYPE svg PUBLIC "-//W3C//DTD SVG 20010904//EN"
 "http://www.w3.org/TR/2001/REC-SVG-20010904/DTD/svg10.dtd">
<svg version="1.0" xmlns="http://www.w3.org/2000/svg"
 width="201.000000pt" height="270.000000pt" viewBox="0 0 201.000000 270.000000"
 preserveAspectRatio="xMidYMid meet">
<metadata>
Created by potrace 1.10, written by Peter Selinger 2001-2011
</metadata>
<g transform="translate(0.000000,270.000000) scale(0.100000,-0.100000)"
fill="#0f559f" stroke="none">
<path d="M1280 2644 c-19 -9 -48 -22 -65 -29 -16 -7 -48 -21 -70 -30 -77 -32
-133 -55 -208 -88 -20 -9 -52 -23 -70 -30 -17 -7 -48 -21 -67 -30 -19 -8 -53
-23 -75 -32 -64 -26 -108 -46 -138 -61 -16 -8 -33 -14 -38 -14 -9 0 -41 -13
-124 -50 -11 -5 -42 -18 -70 -30 -27 -12 -63 -27 -80 -35 -16 -7 -41 -18 -55
-23 -172 -73 -190 -83 -197 -110 -6 -25 3 -417 11 -487 3 -22 10 -128 16 -235
5 -107 15 -217 20 -245 5 -27 14 -135 19 -240 10 -182 25 -426 35 -565 12
-157 30 -202 104 -258 l36 -27 215 2 c119 1 241 4 271 7 30 3 125 10 210 15
85 6 184 12 220 15 36 3 139 10 230 15 91 6 176 15 190 20 14 5 41 13 60 17
100 20 230 127 282 233 l31 64 -6 271 c-4 149 -9 289 -11 311 -6 49 -31 407
-46 645 -6 98 -17 195 -26 221 -19 59 -95 129 -139 129 -12 0 -14 -8 -9 -37 7
-50 11 -98 24 -283 5 -85 12 -180 15 -210 2 -30 9 -127 15 -215 6 -88 12 -182
15 -210 24 -287 32 -523 19 -593 -8 -40 -100 -138 -154 -164 -94 -45 -154 -52
-675 -78 -104 -5 -210 -14 -235 -19 -25 -6 -129 -13 -233 -17 -164 -5 -190 -4
-212 10 -49 32 -18 68 78 91 15 4 30 11 33 16 3 5 13 9 22 9 9 0 30 7 45 15
15 8 43 17 63 21 19 3 37 10 40 15 3 5 13 9 22 9 9 0 29 6 44 14 15 8 40 17
57 21 17 4 33 11 36 16 4 5 14 9 23 9 9 0 30 7 45 15 15 8 43 17 63 21 19 3
37 10 40 15 3 5 13 9 22 9 9 0 29 6 44 14 15 8 40 17 57 21 17 4 33 11 36 16
4 5 14 9 23 9 9 0 30 7 45 15 15 8 43 17 63 21 19 3 37 10 40 15 3 5 13 9 22
9 9 0 30 7 46 15 15 8 33 15 38 15 10 0 40 12 128 52 55 25 127 99 159 164 24
47 24 47 17 298 -4 137 -11 255 -15 260 -5 6 -12 88 -16 181 -3 94 -8 186 -11
205 -2 19 -8 105 -14 190 -5 85 -12 180 -14 210 -3 30 -9 124 -15 208 -11 170
-24 215 -75 250 -27 18 -46 22 -112 22 -49 0 -92 -6 -114 -16z m-190 -570 c36
-18 129 -102 130 -117 0 -5 7 -23 15 -40 32 -69 35 -245 5 -299 -6 -10 -10
-23 -10 -29 0 -16 -43 -103 -52 -107 -5 -2 -8 -9 -8 -16 0 -19 -29 -54 -115
-141 -44 -44 -98 -89 -120 -100 -22 -11 -42 -23 -45 -27 -3 -3 -19 -10 -35
-14 -17 -4 -36 -11 -43 -17 -8 -6 -53 -11 -100 -11 -70 -1 -96 3 -134 21 -47
23 -138 106 -138 127 0 6 -7 25 -16 41 -27 49 -24 222 4 305 49 142 158 282
282 365 37 25 71 45 75 45 4 0 21 6 38 14 46 21 73 25 157 21 45 -2 89 -10
110 -21z"/>
<path d="M965 1990 c-3 -5 -1 -17 4 -27 17 -34 40 -108 47 -155 7 -52 22 -60
59 -34 11 7 32 16 46 19 38 10 43 33 17 83 -23 47 -59 79 -120 107 -42 20 -45
20 -53 7z"/>
<path d="M792 1947 c-12 -13 -22 -30 -22 -38 0 -8 -5 -20 -10 -25 -6 -6 -15
-53 -19 -105 -5 -52 -12 -102 -16 -111 -5 -12 -2 -20 8 -24 14 -5 31 1 122 41
17 7 38 16 48 19 37 12 2 184 -49 239 -30 33 -35 33 -62 4z"/>
<path d="M637 1846 c-26 -25 -97 -128 -97 -143 0 -4 -6 -20 -14 -35 -8 -14
-17 -45 -21 -67 -9 -55 10 -62 79 -28 l53 26 6 116 c3 69 10 122 18 131 21 25
3 25 -24 0z"/>
<path d="M1080 1679 c-30 -16 -36 -26 -42 -67 -16 -99 -27 -206 -22 -211 4 -4
24 17 61 64 25 31 77 154 81 192 4 40 3 43 -19 42 -13 0 -40 -9 -59 -20z"/>
<path d="M870 1596 c-14 -8 -47 -23 -75 -35 l-50 -20 1 -52 c1 -28 7 -61 12
-73 6 -11 13 -32 16 -46 8 -35 62 -91 82 -83 28 11 55 86 69 198 7 60 11 113
9 117 -8 12 -36 9 -64 -6z"/>
<path d="M589 1476 c-14 -7 -37 -16 -52 -20 -35 -8 -36 -42 -3 -94 37 -59 102
-102 153 -102 26 0 29 7 10 35 -17 25 -47 117 -47 144 0 50 -17 60 -61 37z"/>
</g>
</svg>
