<?xml version="1.0" encoding="UTF-8" standalone="no"?>
<svg width="159px" height="136px" viewBox="0 0 159 136" version="1.1" xmlns="http://www.w3.org/2000/svg" xmlns:xlink="http://www.w3.org/1999/xlink">
    <!-- Generator: Sketch 40.3 (33839) - http://www.bohemiancoding.com/sketch -->
    <title>Asset 6</title>
    <desc>Created with Sketch.</desc>
    <defs></defs>
    <g id="Page-1" stroke="none" stroke-width="1" fill="none" fill-rule="evenodd">
        <g id="Asset-6">
            <g id="Layer_2">
                <g id="Layer_1-2">
                    <g id="Group">
                        <path d="M128.327869,33.6963107 C128.425797,32.7540119 128.747012,31.8486888 129.264836,31.055534 L129.264836,40.5359223 C132.564016,40.7471845 136.69459,40.8528155 140.297295,40.8528155 C143.9,40.8528155 147.951393,40.7339806 151.250574,40.5359223 L151.250574,31.0423301 C151.767619,31.7962815 152.043727,32.6895167 152.042377,33.6038835 L152.042377,40.3642718 C154.549754,40.1926214 156.608443,40.0473786 158.838689,39.7700971 C158.838689,36.5219417 158.772705,32.2438835 158.733115,31.847767 C158.258033,26.7774757 156.568852,25.2458252 155.658279,24.4535922 C152.598457,23.1154967 149.444804,22.0033964 146.222623,21.1262136 L146.077459,21.1262136 L145.971885,21.1262136 C145.800328,22.8427184 143.042213,33.6699029 143.042213,33.6699029 C143.042213,33.6699029 141.44541,25.1666019 141.419016,25.1666019 C141.392623,25.1666019 142.382377,23.1464078 142.382377,23.1464078 L140.825164,21.8260194 L139.729836,21.8260194 L138.172623,23.1464078 L139.135984,25.1666019 L137.512787,33.6699029 C137.512787,33.6699029 134.754672,22.8427184 134.583115,21.1262136 L134.490738,21.1262136 L134.31918,21.1262136 C131.104476,21.9647747 127.955278,23.037142 124.896721,24.3347573 C123.972951,25.1798058 122.257377,26.6586408 121.821885,31.728932 C121.821885,32.1778641 121.742705,36.4559223 121.703115,39.6512621 C123.933361,39.9285437 125.767705,40.1662136 128.301475,40.3378641 L128.301475,33.5774757" id="Shape" fill="#0B62AB"></path>
                        <path d="M132.841148,12.8869903 C133.883689,16.5840777 136.364672,19.9246602 140.363279,19.9246602 C144.361885,19.9246602 146.869262,16.544466 147.911803,12.8209709 C149.074171,12.1876026 149.740831,10.9160915 149.600984,9.5992233 C149.528385,8.96372138 149.071871,8.43870738 148.452869,8.27883495 C148.215328,3.63106796 145.074508,0 140.376475,0 C135.678443,0 132.564016,3.59145631 132.286885,8.14679612 C131.568634,8.26597511 131.024142,8.85979377 130.967213,9.58601942 C130.798851,10.9866932 131.580102,12.3290173 132.880738,12.8737864" id="Shape" fill="#0B62AB"></path>
                        <path d="M155.658279,71.4066019 C152.594656,70.1104326 149.441178,69.0381095 146.222623,68.1980583 L146.077459,68.1980583 L145.971885,68.1980583 C145.800328,69.9145631 143.042213,80.7417476 143.042213,80.7417476 C143.042213,80.7417476 141.44541,72.2516505 141.419016,72.2384466 C141.392623,72.2252427 142.382377,70.2182524 142.382377,70.2182524 L140.825164,68.8978641 L139.729836,68.8978641 L138.172623,70.2182524 L139.135984,72.2384466 L137.512787,80.7417476 C137.512787,80.7417476 134.754672,69.927767 134.583115,68.1980583 L134.490738,68.1980583 L134.31918,68.1980583 C131.099914,69.0357336 127.946265,70.1081148 124.883525,71.4066019 C123.972951,72.2516505 122.24418,73.7304854 121.808689,78.8007767 C121.808689,79.2629126 121.729508,83.5409709 121.703115,86.7231068 C123.933361,87.0003883 125.767705,87.2380583 128.301475,87.4097087 L128.301475,80.6361165 C128.398903,79.6937046 128.720159,78.7882667 129.238443,77.9953398 L129.238443,87.5417476 C132.537623,87.7530097 136.668197,87.8586408 140.270902,87.8586408 C143.873607,87.8586408 147.925,87.7398058 151.22418,87.5417476 L151.22418,78.0481553 C151.741984,78.8017392 152.018167,79.6952167 152.015984,80.6097087 L152.015984,87.3700971 C154.523361,87.1984466 156.582049,87.0532039 158.825492,86.7759223 C158.825492,83.527767 158.746311,79.2497087 158.706721,78.8535922 C158.231639,73.783301 156.542459,72.2516505 155.631885,71.4594175" id="Shape" fill="#0B62AB"></path>
                        <path d="M148.466066,55.2186408 C148.215328,50.6368932 145.087705,47.0058252 140.376475,47.0058252 C135.665246,47.0058252 132.564016,50.5972816 132.286885,55.1526214 C131.571004,55.2761609 131.028688,55.8676063 130.967213,56.5918447 C130.794547,58.0004658 131.582912,59.3511385 132.893934,59.8928155 C133.936475,63.5899029 136.417459,66.9304854 140.416066,66.9304854 C144.414672,66.9304854 146.922049,63.5502913 147.951393,59.8267961 C149.115891,59.1889031 149.782349,57.9125689 149.640574,56.5918447 C149.564421,55.9579153 149.109413,55.4346332 148.492459,55.2714563" id="Shape" fill="#0B62AB"></path>
                        <path d="M155.658279,118.412427 C152.595572,117.113852 149.441917,116.041468 146.222623,115.203883 L146.077459,115.203883 L145.971885,115.203883 C145.800328,116.920388 143.042213,127.747573 143.042213,127.747573 C143.042213,127.747573 141.44541,119.257476 141.419016,119.244272 C141.392623,119.231068 142.382377,117.224078 142.382377,117.224078 L140.825164,115.903689 L139.729836,115.903689 L138.172623,117.224078 L139.135984,119.244272 L137.512787,127.747573 C137.512787,127.747573 134.754672,116.920388 134.583115,115.203883 L134.490738,115.203883 L134.31918,115.203883 C131.100008,116.041875 127.946382,117.114249 124.883525,118.412427 C123.972951,119.257476 122.24418,120.736311 121.808689,125.806602 C121.808689,126.255534 121.729508,130.546796 121.703115,133.728932 C123.933361,134.006214 125.767705,134.243883 128.301475,134.415534 L128.301475,127.655146 C128.399901,126.71296 128.721076,125.80775 129.238443,125.014369 L129.238443,134.494757 C132.537623,134.706019 136.668197,134.81165 140.270902,134.81165 C143.873607,134.81165 147.925,134.706019 151.22418,134.494757 L151.22418,125.067184 C151.741984,125.820768 152.018167,126.714246 152.015984,127.628738 L152.015984,134.389126 C154.523361,134.204272 156.582049,134.072233 158.825492,133.794951 C158.825492,130.546796 158.746311,126.268738 158.706721,125.872621 C158.231639,120.80233 156.542459,119.27068 155.631885,118.478447" id="Shape" fill="#0B62AB"></path>
                        <path d="M140.376475,113.949515 C144.414672,113.949515 146.882459,110.556117 147.925,106.845825 C149.086856,106.205344 149.752323,104.930907 149.61418,103.610874 C149.538028,102.976944 149.083019,102.453662 148.466066,102.290485 C148.215328,97.7087379 145.087705,94.0776699 140.376475,94.0776699 C135.665246,94.0776699 132.564016,97.6691262 132.286885,102.224466 C131.568634,102.343645 131.024142,102.937464 130.967213,103.663689 C130.79485,105.057694 131.564098,106.39788 132.854344,106.951456 C133.896885,110.648544 136.377869,114.00233 140.376475,114.00233" id="Shape" fill="#0B62AB"></path>
                        <path d="M53.8191803,36.5747573 C50.2200714,35.0248093 46.5157118,33.7319921 42.7339344,32.7060194 C41.7134338,32.2063706 40.6234373,31.8636143 39.5007377,31.6893204 L39.5007377,31.6893204 C38.819036,37.0805914 37.0836938,42.2849568 34.3936066,47.0058252 C33.7997541,42.3184466 32.8495902,38.0932039 32.7572131,37.6574757 L34.1692623,34.7130097 L31.8730328,32.7852427 L30.2366393,32.7852427 L27.9272131,34.7262136 L29.352459,37.6574757 C29.2468852,38.0932039 28.309918,42.3184466 27.7160656,47.0058252 C25.0207081,42.2883896 23.2891949,37.0820546 22.6221311,31.6893204 L22.6221311,31.6893204 C21.5017118,31.8698576 20.4156928,32.2216693 19.4021311,32.7324272 C15.5942484,33.7465272 11.8633443,35.0305489 8.23770492,36.5747573 C6.91803279,37.8027184 2.00885246,43.744466 0.319672131,62.7976699 C-0.0102459016,68.6601942 1.2302459,80.0683495 1.2302459,80.0683495 C2.06163934,83.184466 2.39155738,85.8252427 6.15262295,85.8252427 C7.61148696,86.0373003 9.08707912,85.5692707 10.1573986,84.5550046 C11.227718,83.5407384 11.7749006,82.0919271 11.642459,80.6229126 C10.9794689,74.9003635 10.7544697,69.1354928 10.9694262,63.3786408 C11.3521311,57.0275728 13.3448361,47.9565049 14.2818033,47.6 L14.2818033,47.6 L14.2818033,77.6124272 C14.2647654,78.7516686 14.397879,79.8881876 14.6777049,80.9926214 L14.6777049,128.96233 C14.6777049,132.514175 17.9372951,135.392621 21.9490984,135.392621 L21.9490984,135.392621 C25.9081148,135.392621 29.2072951,132.514175 29.2072951,128.96233 L29.2072951,86.1025243 L32.8231967,86.1025243 L32.8231967,128.96233 C32.8231967,132.514175 36.0827869,135.392621 40.0945902,135.392621 L40.0945902,135.392621 C44.0536066,135.392621 47.3527869,132.514175 47.3527869,128.96233 L47.3527869,80.9926214 C47.662585,79.8924419 47.8223913,78.755425 47.8278689,77.6124272 L47.8278689,47.5339806 L47.8278689,47.5339806 C48.7648361,47.8904854 50.757541,56.9615534 51.1402459,63.3126214 C51.3653843,69.1134238 51.1403648,74.9229606 50.4672131,80.688932 C50.3561796,82.1469401 50.9127332,83.5765378 51.9801884,84.5752527 C53.0476436,85.5739677 54.5105468,86.0337812 55.9570492,85.8252427 C59.7181148,85.6932039 60.0480328,83.184466 60.8794262,80.0023301 C60.8794262,80.0023301 62.119918,68.5809709 61.7108197,62.7184466 C60.0480328,43.6652427 55.1784426,37.7234951 53.7927869,36.495534" id="Shape" fill="#0B62AB"></path>
                        <path d="M19.454918,20.6640777 C21.0913115,26.0380583 24.9579508,30.9234951 31.2131967,30.9234951 C37.4684426,30.9234951 41.3878689,25.9984466 43.0110656,20.5848544 C44.792884,19.7240373 45.8472473,17.8409773 45.6504098,15.871068 C45.5456335,14.8901542 44.8300096,14.0839773 43.8688525,13.8640777 C43.7895936,10.5963701 42.4101118,7.49546018 40.0365472,5.24951373 C37.6629825,3.00356729 34.4916678,1.79836113 31.2263934,1.90135922 C24.4621276,1.70135591 18.8124756,7.01739185 18.5971311,13.7848544 C17.4958601,13.8925248 16.6147493,14.7467353 16.472459,15.8446602 C16.2378968,17.9404607 17.4717543,19.9233517 19.454918,20.6376699" id="Shape" fill="#0B62AB"></path>
                        <path d="M98.7764017,26.5301042 L113.195415,26.5301042 C114.087653,26.5301042 114.912116,24.7228075 115.358236,23.8408141 C115.804355,22.9588206 115.804355,20.7964439 115.358236,19.9144505 C114.912116,19.0324571 114.087653,18.4891267 113.195415,18.4891268 L98.7175005,18.4891268 C95.6494802,18.4171287 90.7494384,19.3941759 88.5390553,21.8238465 C86.3286721,24.2535171 85.8475379,27.935868 85.7949543,31.4380586 L85.7949543,70.9033908 L70.2917832,70.9033908 C69.7223109,70.8586681 68.4419069,71.7534387 67.9866977,72.9203584 C67.6976886,73.6612272 68.1750405,74.7092852 67.9866977,75.0627027 C67.5017019,75.9727774 67.5017019,77.1155762 67.9866977,78.0256508 C68.4716934,78.9357254 69.360757,79.4612178 70.2917832,79.388101 L85.7949543,79.388101 L85.7949543,121.650295 C85.8506572,125.151323 87.4270063,130.744995 89.6366956,133.173903 C91.846385,135.602811 95.6739408,134.667623 98.741061,134.599227 L113.195415,134.599227 C114.087653,134.599227 114.436305,134.055897 114.882425,133.173903 C115.328544,132.29191 115.328544,129.605121 114.882425,128.723128 C114.436305,127.841134 114.087653,126.70616 113.195415,126.70616 L98.7764017,126.033838 C97.0212836,126.065324 97.4850399,127.425876 96.222538,126.033838 C94.9909352,124.700305 94.0663003,123.58797 94.064306,121.650295 L94.0054048,80.3159061 L113.195415,79.388101 C114.126441,79.4612178 115.015504,78.9357254 115.5005,78.0256508 C115.985496,77.1155762 115.985496,75.9727774 115.5005,75.0627027 C115.358847,74.7968962 115.70207,73.4530248 115.5005,72.9203584 C115.011931,71.6292691 113.854515,70.8516293 113.195415,70.9033908 L94.064306,70.9033908 L94.0054048,31.4380586 C94.0087804,29.5007101 94.443272,29.2092025 95.6737178,27.8747492" id="Shape" fill="#02559F"></path>
                    </g>
                </g>
            </g>
        </g>
    </g>
</svg>