<?xml version="1.0" standalone="no"?>
<!DOCTYPE svg PUBLIC "-//W3C//DTD SVG 20010904//EN"
 "http://www.w3.org/TR/2001/REC-SVG-20010904/DTD/svg10.dtd">
<svg version="1.0" xmlns="http://www.w3.org/2000/svg"
 width="174.000000pt" height="264.000000pt" viewBox="0 0 174.000000 264.000000"
 preserveAspectRatio="xMidYMid meet">
<metadata>
Created by potrace 1.10, written by Peter Selinger 2001-2011
</metadata>
<g transform="translate(0.000000,264.000000) scale(0.100000,-0.100000)"
fill="#0f559f" stroke="none">
<path d="M835 2591 c-19 -18 -169 -32 -220 -21 -58 13 -70 5 -79 -51 -3 -22
-18 -58 -31 -80 -22 -33 -23 -40 -10 -45 25 -10 17 -33 -12 -39 -16 -4 -35
-10 -43 -14 -19 -10 -34 -134 -20 -160 11 -21 4 -31 -22 -31 -19 0 -35 28 -47
84 -8 36 -26 44 -34 15 -4 -14 -11 -20 -20 -16 -17 6 -37 -11 -37 -30 0 -7 11
-18 24 -24 13 -6 29 -22 35 -35 6 -13 19 -24 28 -24 27 0 59 -40 65 -79 4 -30
2 -35 -24 -45 -21 -8 -26 -15 -22 -29 4 -13 0 -20 -15 -24 -25 -6 -27 -16 -7
-33 12 -9 13 -17 4 -36 -15 -32 -10 -35 40 -22 47 12 56 7 66 -34 5 -24 3 -28
-14 -28 -22 0 -28 -26 -8 -32 15 -5 14 -156 -1 -171 -16 -16 -13 -37 4 -37 17
0 35 38 35 75 0 33 32 85 53 85 9 0 17 -4 17 -10 0 -5 10 -9 23 -7 17 1 22 -3
20 -19 -1 -12 7 -30 17 -39 20 -18 27 -50 13 -57 -5 -1 -25 -37 -46 -79 -44
-87 -42 -110 7 -102 22 3 36 0 45 -11 17 -20 30 -20 52 0 14 12 21 13 36 4 15
-10 26 -8 56 10 20 12 37 26 37 31 0 15 30 10 36 -5 3 -8 -4 -34 -15 -59 -25
-56 -26 -59 -3 -100 35 -65 47 -76 78 -74 26 2 29 -1 27 -27 -1 -16 -8 -33
-15 -37 -8 -5 -14 -33 -15 -75 -1 -80 -18 -101 -90 -108 -26 -3 -57 -8 -68
-11 -15 -4 -29 2 -47 20 -16 16 -32 23 -42 19 -22 -8 -20 -30 6 -67 l22 -30
-37 -32 c-29 -25 -34 -34 -23 -38 9 -4 22 0 30 8 8 8 26 15 40 15 23 0 26 -4
26 -39 0 -21 3 -53 6 -70 6 -27 1 -36 -35 -71 -22 -22 -49 -40 -60 -40 -10 0
-24 -7 -31 -15 -7 -8 -19 -15 -28 -15 -26 0 -52 -30 -42 -49 5 -9 11 -24 14
-33 7 -22 37 -23 75 -4 36 19 68 11 75 -20 7 -25 20 -31 31 -14 12 20 52 11
63 -15 18 -40 54 -42 108 -6 56 37 74 31 41 -13 -14 -17 -26 -40 -29 -51 -3
-18 -12 -20 -78 -21 -123 0 -127 -1 -134 -29 -4 -15 -17 -30 -31 -35 -16 -6
-25 -17 -25 -31 0 -27 -136 -177 -164 -181 -25 -4 -23 -23 3 -23 10 0 26 -7
35 -15 16 -12 19 -12 27 3 18 32 74 77 96 77 12 0 24 4 27 9 7 11 88 -16 98
-32 13 -21 42 7 57 55 11 37 21 48 51 62 46 20 77 20 96 1 21 -20 107 -20 124
0 7 8 25 15 40 15 15 0 33 -7 40 -15 7 -8 21 -15 32 -15 23 0 36 29 17 41 -9
6 5 7 38 3 36 -4 58 -3 68 6 14 12 57 10 117 -5 46 -12 214 79 224 121 9 34
-1 42 -48 37 -28 -3 -50 0 -62 10 -19 14 -19 15 2 26 12 7 24 25 28 46 4 22
13 37 26 41 34 10 86 76 93 117 4 21 15 43 26 50 11 7 19 23 19 40 0 15 -4 26
-9 23 -4 -3 -22 12 -40 34 -18 22 -40 40 -51 40 -10 0 -22 5 -25 10 -3 6 -29
10 -56 10 -43 0 -51 -3 -61 -25 -13 -30 -29 -32 -51 -7 -18 20 -22 42 -8 42 5
0 16 11 25 24 15 23 14 28 -4 71 -12 28 -28 49 -40 52 -24 6 -26 22 -4 37 14
11 13 16 -11 51 -16 24 -24 47 -21 59 3 12 -4 33 -17 51 -13 16 -28 43 -35 58
-7 16 -26 34 -46 42 -52 22 -94 62 -102 97 -3 18 -10 39 -15 48 -9 18 -29 93
-36 139 -3 18 -18 45 -33 60 -15 14 -32 36 -39 48 -6 13 -23 26 -36 29 -14 3
-25 10 -25 14 0 5 -14 11 -31 15 -22 5 -36 2 -49 -10 -20 -18 -61 -17 -67 1
-6 19 47 74 71 74 34 0 38 11 15 36 l-22 23 32 28 c17 15 31 32 31 37 0 5 10
23 23 40 12 17 33 65 46 106 13 41 30 82 37 91 18 20 18 73 1 88 -8 6 -33 8
-64 5 -28 -4 -58 -2 -69 4 -12 7 -25 7 -41 -1 -17 -8 -30 -7 -47 3 -22 11 -31
10 -70 -9 -47 -21 -76 -27 -76 -13 0 4 7 20 16 37 10 19 11 31 5 33 -27 9 -7
49 52 104 34 33 67 62 73 66 7 4 14 27 15 52 4 39 1 45 -16 48 -11 1 -25 -2
-30 -7z m-359 -696 c-14 -32 -18 -35 -31 -25 -23 19 -18 37 13 53 15 7 28 12
30 11 2 -1 -4 -19 -12 -39z"/>
<path d="M383 1740 c-3 -12 -14 -20 -28 -20 -25 0 -60 -34 -50 -49 3 -6 13
-11 20 -11 10 0 12 -6 8 -17 -7 -17 -5 -17 17 -2 16 11 24 24 22 37 -2 13 5
25 17 32 12 6 21 20 21 30 0 26 -20 26 -27 0z"/>
<path d="M502 1624 c2 -22 8 -38 13 -36 15 3 12 65 -3 70 -10 3 -13 -6 -10
-34z"/>
<path d="M260 1502 c-25 -9 -49 -22 -55 -29 -5 -6 -21 -13 -35 -15 -15 -2 -26
-11 -29 -23 -6 -33 -41 -75 -62 -75 -22 0 -24 -11 -7 -28 9 -9 4 -14 -20 -23
-42 -14 -41 -36 4 -76 55 -48 114 -56 114 -14 0 21 35 56 47 48 5 -3 19 -26
31 -51 29 -57 37 -62 67 -42 15 10 26 12 30 6 12 -19 45 -10 57 15 6 14 22 28
35 31 13 4 23 11 24 18 7 77 5 88 -16 98 -15 7 -21 16 -18 28 3 11 -6 30 -21
47 -14 15 -29 42 -32 60 -3 18 -11 33 -18 33 -6 0 -20 2 -31 5 -11 2 -40 -4
-65 -13z"/>
</g>
</svg>
