<?xml version="1.0" standalone="no"?>
<!DOCTYPE svg PUBLIC "-//W3C//DTD SVG 20010904//EN"
 "http://www.w3.org/TR/2001/REC-SVG-20010904/DTD/svg10.dtd">
<svg version="1.0" xmlns="http://www.w3.org/2000/svg"
 width="294.000000pt" height="234.000000pt" viewBox="0 0 294.000000 234.000000"
 preserveAspectRatio="xMidYMid meet">
<metadata>
Created by potrace 1.10, written by Peter Selinger 2001-2011
</metadata>
<g transform="translate(0.000000,234.000000) scale(0.100000,-0.100000)"
fill="#0f559f" stroke="none">
<path d="M1570 2325 c0 -8 -2 -15 -4 -15 -27 0 -163 -24 -171 -30 -5 -4 -32
-11 -60 -15 -27 -4 -54 -10 -60 -15 -5 -4 -32 -11 -60 -15 -27 -4 -54 -10 -60
-15 -5 -4 -36 -10 -68 -13 -32 -3 -64 -10 -70 -15 -7 -5 -27 -12 -45 -15 -67
-13 -183 -104 -213 -167 -40 -85 -40 -84 -69 -230 -6 -30 -16 -77 -21 -105 -6
-27 -11 -79 -12 -115 l-2 -65 91 -3 91 -3 52 41 c28 22 51 45 51 50 0 4 7 15
15 24 9 8 38 59 66 113 28 54 60 106 71 116 18 15 44 17 226 17 225 0 210 3
337 -70 28 -16 88 -49 135 -72 47 -24 87 -46 90 -49 3 -3 51 -28 107 -56 56
-29 108 -56 115 -62 7 -6 81 -60 163 -122 83 -61 152 -115 155 -118 11 -14
180 -142 214 -162 l36 -21 38 28 c20 16 43 34 51 42 7 7 36 28 65 46 28 18 60
43 70 55 11 11 25 21 33 21 9 0 13 15 13 50 0 37 -4 50 -14 50 -15 0 -19 10
-32 70 -3 19 -10 41 -15 50 -4 8 -14 38 -22 65 -8 28 -25 84 -37 125 -12 41
-25 84 -29 95 -5 11 -18 54 -31 95 -12 41 -26 84 -30 95 -5 11 -12 34 -15 52
-9 47 -42 110 -60 117 -39 14 -97 5 -153 -25 -78 -42 -143 -48 -207 -19 -28
12 -66 28 -85 36 -19 8 -43 19 -53 25 -9 5 -39 12 -65 16 -26 3 -51 9 -57 13
-5 5 -32 11 -60 15 -27 4 -54 11 -60 15 -5 4 -30 13 -55 18 -139 33 -155 39
-158 55 -5 24 -132 25 -132 2z"/>
<path d="M284 2172 c-14 -9 -54 -82 -54 -99 0 -8 -5 -21 -10 -31 -13 -21 -193
-570 -208 -635 -14 -57 -15 -87 -3 -87 5 0 11 -10 15 -23 3 -13 21 -35 41 -48
53 -39 175 -159 200 -199 12 -20 26 -55 30 -78 8 -49 22 -53 68 -18 61 46 156
72 171 47 3 -5 18 -12 33 -16 39 -9 92 -51 115 -91 l20 -34 79 0 c43 0 79 -4
79 -9 0 -5 11 -12 24 -15 31 -8 86 -62 98 -98 9 -26 14 -28 63 -28 70 0 148
-40 181 -92 29 -45 54 -114 54 -148 0 -21 10 -30 59 -52 48 -23 66 -38 92 -80
33 -51 34 -56 35 -167 2 -146 6 -151 133 -151 l87 0 35 38 c20 20 42 57 49 82
18 60 25 66 55 50 21 -11 36 -11 92 0 36 7 80 22 98 34 47 30 75 90 75 160 0
63 2 64 70 40 31 -11 63 -14 102 -10 113 11 183 87 176 190 l-3 51 82 0 c76 1
85 3 120 31 52 43 79 114 64 171 -18 69 -59 122 -126 163 -22 13 -46 30 -53
37 -7 7 -17 13 -20 13 -4 0 -18 10 -32 23 -14 12 -65 54 -115 92 -49 38 -96
75 -103 82 -7 7 -16 13 -20 13 -4 0 -23 14 -42 31 -32 29 -103 80 -168 121
-15 9 -61 34 -102 55 -41 21 -77 40 -80 43 -3 3 -41 23 -85 45 -44 22 -82 42
-85 45 -3 3 -31 19 -63 35 -32 17 -70 37 -85 45 -36 20 -315 22 -349 2 -13 -7
-35 -38 -50 -70 -15 -31 -30 -59 -33 -62 -3 -3 -17 -24 -32 -47 -30 -45 -92
-107 -136 -133 -90 -55 -212 -65 -297 -24 -115 54 -127 126 -71 424 17 89 34
157 47 185 27 62 29 74 9 80 -11 4 -20 11 -20 16 0 5 -6 9 -12 9 -13 0 -18 2
-130 63 -66 36 -135 48 -164 29z"/>
<path d="M419 829 c-46 -49 -64 -97 -64 -166 0 -57 3 -65 34 -97 32 -33 40
-36 91 -36 49 0 60 4 83 28 15 15 27 39 27 51 0 13 5 41 11 62 15 47 -2 117
-39 160 -20 24 -31 29 -69 29 -37 0 -50 -5 -74 -31z"/>
<path d="M745 715 c-39 -17 -79 -57 -118 -120 -43 -67 -64 -132 -49 -147 7 -7
12 -19 12 -29 0 -29 36 -64 82 -77 41 -12 48 -11 79 7 55 32 129 192 129 276
-1 45 -16 71 -56 91 -31 17 -40 16 -79 -1z"/>
<path d="M1051 564 c-30 -12 -42 -24 -79 -69 -4 -5 -19 -28 -32 -50 -13 -22
-28 -43 -34 -47 -18 -12 -20 -135 -3 -162 38 -58 128 -73 184 -31 31 24 73 97
73 127 0 8 5 19 11 25 13 13 24 122 15 156 -6 24 -64 67 -89 67 -7 -1 -27 -7
-46 -16z"/>
<path d="M1263 296 c-68 -25 -123 -100 -123 -167 0 -29 8 -46 34 -73 31 -33
38 -36 93 -36 63 0 78 9 112 70 29 51 4 191 -36 203 -10 2 -25 7 -33 10 -8 2
-30 -1 -47 -7z"/>
</g>
</svg>
