<svg xmlns="http://www.w3.org/2000/svg" xmlns:xlink="http://www.w3.org/1999/xlink" viewBox="0 0 85.26 56.69"><defs><style>.cls-1{fill:none;}.cls-2{clip-path:url(#clip-path);}.cls-3{fill:#fff;}.cls-4{fill:#233caf;}.cls-5{fill:#eb0000;}</style><clipPath id="clip-path"><circle class="cls-1" cx="42.63" cy="28.35" r="28.35"/></clipPath></defs><title>Asset 4</title><g id="Layer_2" data-name="Layer 2"><g id="_ÎÓÈ_1" data-name="—ÎÓÈ 1"><g class="cls-2"><polygon class="cls-3" points="7.3 4.63 7.77 5.58 8.81 5.74 8.06 6.47 8.23 7.52 7.3 7.03 6.36 7.52 6.54 6.47 5.78 5.74 6.83 5.58 7.3 4.63"/><polygon class="cls-3" points="14.43 4.63 14.9 5.58 15.95 5.74 15.19 6.47 15.37 7.52 14.43 7.03 13.49 7.52 13.67 6.47 12.91 5.74 13.96 5.58 14.43 4.63"/><polygon class="cls-3" points="21.56 4.63 22.03 5.58 23.08 5.74 22.32 6.47 22.5 7.52 21.56 7.03 20.63 7.52 20.8 6.47 20.05 5.74 21.09 5.58 21.56 4.63"/><polygon class="cls-3" points="28.69 4.63 29.16 5.58 30.21 5.74 29.45 6.47 29.63 7.52 28.69 7.03 27.76 7.52 27.94 6.47 27.18 5.74 28.23 5.58 28.69 4.63"/><polygon class="cls-3" points="35.83 4.63 36.3 5.58 37.34 5.74 36.58 6.47 36.76 7.52 35.83 7.03 34.89 7.52 35.07 6.47 34.31 5.74 35.36 5.58 35.83 4.63"/><polygon class="cls-3" points="7.3 10.78 7.77 11.73 8.81 11.88 8.06 12.62 8.23 13.66 7.3 13.17 6.36 13.66 6.54 12.62 5.78 11.88 6.83 11.73 7.3 10.78"/><polygon class="cls-3" points="14.43 10.78 14.9 11.73 15.95 11.88 15.19 12.62 15.37 13.66 14.43 13.17 13.49 13.66 13.67 12.62 12.91 11.88 13.96 11.73 14.43 10.78"/><polygon class="cls-3" points="21.56 10.78 22.03 11.73 23.08 11.88 22.32 12.62 22.5 13.66 21.56 13.17 20.63 13.66 20.8 12.62 20.05 11.88 21.09 11.73 21.56 10.78"/><polygon class="cls-3" points="28.69 10.78 29.16 11.73 30.21 11.88 29.45 12.62 29.63 13.66 28.69 13.17 27.76 13.66 27.94 12.62 27.18 11.88 28.23 11.73 28.69 10.78"/><polygon class="cls-3" points="35.83 10.78 36.3 11.73 37.34 11.88 36.58 12.62 36.76 13.66 35.83 13.17 34.89 13.66 35.07 12.62 34.31 11.88 35.36 11.73 35.83 10.78"/><polygon class="cls-3" points="7.3 16.93 7.77 17.88 8.81 18.03 8.06 18.77 8.23 19.81 7.3 19.32 6.36 19.81 6.54 18.77 5.78 18.03 6.83 17.88 7.3 16.93"/><polygon class="cls-3" points="14.43 16.93 14.9 17.88 15.95 18.03 15.19 18.77 15.37 19.81 14.43 19.32 13.49 19.81 13.67 18.77 12.91 18.03 13.96 17.88 14.43 16.93"/><polygon class="cls-3" points="21.56 16.93 22.03 17.88 23.08 18.03 22.32 18.77 22.5 19.81 21.56 19.32 20.63 19.81 20.8 18.77 20.05 18.03 21.09 17.88 21.56 16.93"/><polygon class="cls-3" points="28.69 16.93 29.16 17.88 30.21 18.03 29.45 18.77 29.63 19.81 28.69 19.32 27.76 19.81 27.94 18.77 27.18 18.03 28.23 17.88 28.69 16.93"/><polygon class="cls-3" points="35.83 16.93 36.3 17.88 37.34 18.03 36.58 18.77 36.76 19.81 35.83 19.32 34.89 19.81 35.07 18.77 34.31 18.03 35.36 17.88 35.83 16.93"/><polygon class="cls-3" points="7.3 23.07 7.77 24.02 8.81 24.18 8.06 24.91 8.23 25.95 7.3 25.46 6.36 25.95 6.54 24.91 5.78 24.18 6.83 24.02 7.3 23.07"/><polygon class="cls-3" points="14.43 23.07 14.9 24.02 15.95 24.18 15.19 24.91 15.37 25.95 14.43 25.46 13.49 25.95 13.67 24.91 12.91 24.18 13.96 24.02 14.43 23.07"/><polygon class="cls-3" points="21.56 23.07 22.03 24.02 23.08 24.18 22.32 24.91 22.5 25.95 21.56 25.46 20.63 25.95 20.8 24.91 20.05 24.18 21.09 24.02 21.56 23.07"/><polygon class="cls-3" points="28.69 23.07 29.16 24.02 30.21 24.18 29.45 24.91 29.63 25.95 28.69 25.46 27.76 25.95 27.94 24.91 27.18 24.18 28.23 24.02 28.69 23.07"/><polygon class="cls-3" points="35.83 23.07 36.3 24.02 37.34 24.18 36.58 24.91 36.76 25.95 35.83 25.46 34.89 25.95 35.07 24.91 34.31 24.18 35.36 24.02 35.83 23.07"/><rect class="cls-3" width="85.26" height="56.69"/><rect class="cls-4" width="43.13" height="30.59"/><rect class="cls-5" x="43.13" width="42.14" height="4.49"/><rect class="cls-5" x="43.13" y="8.7" width="42.14" height="4.49"/><rect class="cls-5" x="43.13" y="17.4" width="42.14" height="4.49"/><rect class="cls-5" x="43.13" y="26.1" width="42.14" height="4.49"/><rect class="cls-5" y="34.8" width="85.26" height="4.49"/><rect class="cls-5" y="43.5" width="85.26" height="4.49"/><rect class="cls-5" y="52.2" width="85.26" height="4.49"/><polygon class="cls-3" points="4.3 3.42 5.33 2.68 4.06 2.68 3.67 1.47 3.28 2.68 2.01 2.68 3.04 3.42 2.64 4.63 3.67 3.89 4.7 4.63 4.3 3.42"/><polygon class="cls-3" points="11.45 3.42 12.47 2.68 11.2 2.68 10.81 1.47 10.42 2.68 9.15 2.68 10.18 3.42 9.79 4.63 10.81 3.89 11.84 4.63 11.45 3.42"/><polygon class="cls-3" points="18.59 3.42 19.62 2.68 18.35 2.68 17.95 1.47 17.56 2.68 16.3 2.68 17.32 3.42 16.93 4.63 17.95 3.89 18.98 4.63 18.59 3.42"/><polygon class="cls-3" points="25.73 3.42 26.76 2.68 25.49 2.68 25.1 1.47 24.71 2.68 23.44 2.68 24.46 3.42 24.07 4.63 25.1 3.89 26.13 4.63 25.73 3.42"/><polygon class="cls-3" points="32.88 3.42 33.9 2.68 32.63 2.68 32.24 1.47 31.85 2.68 30.58 2.68 31.61 3.42 31.22 4.63 32.24 3.89 33.27 4.63 32.88 3.42"/><polygon class="cls-3" points="40.02 3.42 41.05 2.68 39.78 2.68 39.38 1.47 38.99 2.68 37.73 2.68 38.75 3.42 38.36 4.63 39.38 3.89 40.41 4.63 40.02 3.42"/><polygon class="cls-3" points="7.88 6.49 8.9 5.74 7.63 5.74 7.24 4.53 6.85 5.74 5.58 5.74 6.61 6.49 6.21 7.69 7.24 6.95 8.27 7.69 7.88 6.49"/><polygon class="cls-3" points="15.02 6.49 16.05 5.74 14.78 5.74 14.38 4.53 13.99 5.74 12.72 5.74 13.75 6.49 13.36 7.69 14.38 6.95 15.41 7.69 15.02 6.49"/><polygon class="cls-3" points="22.16 6.49 23.19 5.74 21.92 5.74 21.53 4.53 21.14 5.74 19.87 5.74 20.89 6.49 20.5 7.69 21.53 6.95 22.55 7.69 22.16 6.49"/><polygon class="cls-3" points="29.3 6.49 30.33 5.74 29.06 5.74 28.67 4.53 28.28 5.74 27.01 5.74 28.04 6.49 27.64 7.69 28.67 6.95 29.7 7.69 29.3 6.49"/><polygon class="cls-3" points="36.45 6.49 37.48 5.74 36.21 5.74 35.81 4.53 35.42 5.74 34.15 5.74 35.18 6.49 34.79 7.69 35.81 6.95 36.84 7.69 36.45 6.49"/><polygon class="cls-3" points="4.3 9.55 5.33 8.8 4.06 8.8 3.67 7.59 3.28 8.8 2.01 8.8 3.04 9.55 2.64 10.75 3.67 10.01 4.7 10.75 4.3 9.55"/><polygon class="cls-3" points="11.45 9.55 12.47 8.8 11.2 8.8 10.81 7.59 10.42 8.8 9.15 8.8 10.18 9.55 9.79 10.75 10.81 10.01 11.84 10.75 11.45 9.55"/><polygon class="cls-3" points="18.59 9.55 19.62 8.8 18.35 8.8 17.95 7.59 17.56 8.8 16.3 8.8 17.32 9.55 16.93 10.75 17.95 10.01 18.98 10.75 18.59 9.55"/><polygon class="cls-3" points="25.73 9.55 26.76 8.8 25.49 8.8 25.1 7.59 24.71 8.8 23.44 8.8 24.46 9.55 24.07 10.75 25.1 10.01 26.13 10.75 25.73 9.55"/><polygon class="cls-3" points="32.88 9.55 33.9 8.8 32.63 8.8 32.24 7.59 31.85 8.8 30.58 8.8 31.61 9.55 31.22 10.75 32.24 10.01 33.27 10.75 32.88 9.55"/><polygon class="cls-3" points="40.02 9.55 41.05 8.8 39.78 8.8 39.38 7.59 38.99 8.8 37.73 8.8 38.75 9.55 38.36 10.75 39.38 10.01 40.41 10.75 40.02 9.55"/><polygon class="cls-3" points="7.88 12.61 8.9 11.86 7.63 11.86 7.24 10.66 6.85 11.86 5.58 11.86 6.61 12.61 6.21 13.82 7.24 13.07 8.27 13.82 7.88 12.61"/><polygon class="cls-3" points="15.02 12.61 16.05 11.86 14.78 11.86 14.38 10.66 13.99 11.86 12.72 11.86 13.75 12.61 13.36 13.82 14.38 13.07 15.41 13.82 15.02 12.61"/><polygon class="cls-3" points="22.16 12.61 23.19 11.86 21.92 11.86 21.53 10.66 21.14 11.86 19.87 11.86 20.89 12.61 20.5 13.82 21.53 13.07 22.55 13.82 22.16 12.61"/><polygon class="cls-3" points="29.3 12.61 30.33 11.86 29.06 11.86 28.67 10.66 28.28 11.86 27.01 11.86 28.04 12.61 27.64 13.82 28.67 13.07 29.7 13.82 29.3 12.61"/><polygon class="cls-3" points="36.45 12.61 37.48 11.86 36.21 11.86 35.81 10.66 35.42 11.86 34.15 11.86 35.18 12.61 34.79 13.82 35.81 13.07 36.84 13.82 36.45 12.61"/><polygon class="cls-3" points="4.3 15.67 5.33 14.93 4.06 14.93 3.67 13.72 3.28 14.93 2.01 14.93 3.04 15.67 2.64 16.88 3.67 16.13 4.7 16.88 4.3 15.67"/><polygon class="cls-3" points="11.45 15.67 12.47 14.93 11.2 14.93 10.81 13.72 10.42 14.93 9.15 14.93 10.18 15.67 9.79 16.88 10.81 16.13 11.84 16.88 11.45 15.67"/><polygon class="cls-3" points="18.59 15.67 19.62 14.93 18.35 14.93 17.95 13.72 17.56 14.93 16.3 14.93 17.32 15.67 16.93 16.88 17.95 16.13 18.98 16.88 18.59 15.67"/><polygon class="cls-3" points="25.73 15.67 26.76 14.93 25.49 14.93 25.1 13.72 24.71 14.93 23.44 14.93 24.46 15.67 24.07 16.88 25.1 16.13 26.13 16.88 25.73 15.67"/><polygon class="cls-3" points="32.88 15.67 33.9 14.93 32.63 14.93 32.24 13.72 31.85 14.93 30.58 14.93 31.61 15.67 31.22 16.88 32.24 16.13 33.27 16.88 32.88 15.67"/><polygon class="cls-3" points="40.02 15.67 41.05 14.93 39.78 14.93 39.38 13.72 38.99 14.93 37.73 14.93 38.75 15.67 38.36 16.88 39.38 16.13 40.41 16.88 40.02 15.67"/><polygon class="cls-3" points="7.88 18.73 8.9 17.99 7.63 17.99 7.24 16.78 6.85 17.99 5.58 17.99 6.61 18.73 6.21 19.94 7.24 19.19 8.27 19.94 7.88 18.73"/><polygon class="cls-3" points="15.02 18.73 16.05 17.99 14.78 17.99 14.38 16.78 13.99 17.99 12.72 17.99 13.75 18.73 13.36 19.94 14.38 19.19 15.41 19.94 15.02 18.73"/><polygon class="cls-3" points="22.16 18.73 23.19 17.99 21.92 17.99 21.53 16.78 21.14 17.99 19.87 17.99 20.89 18.73 20.5 19.94 21.53 19.19 22.55 19.94 22.16 18.73"/><polygon class="cls-3" points="29.3 18.73 30.33 17.99 29.06 17.99 28.67 16.78 28.28 17.99 27.01 17.99 28.04 18.73 27.64 19.94 28.67 19.19 29.7 19.94 29.3 18.73"/><polygon class="cls-3" points="36.45 18.73 37.48 17.99 36.21 17.99 35.81 16.78 35.42 17.99 34.15 17.99 35.18 18.73 34.79 19.94 35.81 19.19 36.84 19.94 36.45 18.73"/><polygon class="cls-3" points="4.3 21.79 5.33 21.05 4.06 21.05 3.67 19.84 3.28 21.05 2.01 21.05 3.04 21.79 2.64 23 3.67 22.25 4.7 23 4.3 21.79"/><polygon class="cls-3" points="11.45 21.79 12.47 21.05 11.2 21.05 10.81 19.84 10.42 21.05 9.15 21.05 10.18 21.79 9.79 23 10.81 22.25 11.84 23 11.45 21.79"/><polygon class="cls-3" points="18.59 21.79 19.62 21.05 18.35 21.05 17.95 19.84 17.56 21.05 16.3 21.05 17.32 21.79 16.93 23 17.95 22.25 18.98 23 18.59 21.79"/><polygon class="cls-3" points="25.73 21.79 26.76 21.05 25.49 21.05 25.1 19.84 24.71 21.05 23.44 21.05 24.46 21.79 24.07 23 25.1 22.25 26.13 23 25.73 21.79"/><polygon class="cls-3" points="32.88 21.79 33.9 21.05 32.63 21.05 32.24 19.84 31.85 21.05 30.58 21.05 31.61 21.79 31.22 23 32.24 22.25 33.27 23 32.88 21.79"/><polygon class="cls-3" points="40.02 21.79 41.05 21.05 39.78 21.05 39.38 19.84 38.99 21.05 37.73 21.05 38.75 21.79 38.36 23 39.38 22.25 40.41 23 40.02 21.79"/><polygon class="cls-3" points="7.88 24.86 8.9 24.11 7.63 24.11 7.24 22.9 6.85 24.11 5.58 24.11 6.61 24.86 6.21 26.06 7.24 25.32 8.27 26.06 7.88 24.86"/><polygon class="cls-3" points="15.02 24.86 16.05 24.11 14.78 24.11 14.38 22.9 13.99 24.11 12.72 24.11 13.75 24.86 13.36 26.06 14.38 25.32 15.41 26.06 15.02 24.86"/><polygon class="cls-3" points="22.16 24.86 23.19 24.11 21.92 24.11 21.53 22.9 21.14 24.11 19.87 24.11 20.89 24.86 20.5 26.06 21.53 25.32 22.55 26.06 22.16 24.86"/><polygon class="cls-3" points="29.3 24.86 30.33 24.11 29.06 24.11 28.67 22.9 28.28 24.11 27.01 24.11 28.04 24.86 27.64 26.06 28.67 25.32 29.7 26.06 29.3 24.86"/><polygon class="cls-3" points="36.45 24.86 37.48 24.11 36.21 24.11 35.81 22.9 35.42 24.11 34.15 24.11 35.18 24.86 34.79 26.06 35.81 25.32 36.84 26.06 36.45 24.86"/><polygon class="cls-3" points="4.3 27.92 5.33 27.17 4.06 27.17 3.67 25.96 3.28 27.17 2.01 27.17 3.04 27.92 2.64 29.12 3.67 28.38 4.7 29.12 4.3 27.92"/><polygon class="cls-3" points="11.45 27.92 12.47 27.17 11.2 27.17 10.81 25.96 10.42 27.17 9.15 27.17 10.18 27.92 9.79 29.12 10.81 28.38 11.84 29.12 11.45 27.92"/><polygon class="cls-3" points="18.59 27.92 19.62 27.17 18.35 27.17 17.95 25.96 17.56 27.17 16.3 27.17 17.32 27.92 16.93 29.12 17.95 28.38 18.98 29.12 18.59 27.92"/><polygon class="cls-3" points="25.73 27.92 26.76 27.17 25.49 27.17 25.1 25.96 24.71 27.17 23.44 27.17 24.46 27.92 24.07 29.12 25.1 28.38 26.13 29.12 25.73 27.92"/><polygon class="cls-3" points="32.88 27.92 33.9 27.17 32.63 27.17 32.24 25.96 31.85 27.17 30.58 27.17 31.61 27.92 31.22 29.12 32.24 28.38 33.27 29.12 32.88 27.92"/><polygon class="cls-3" points="40.02 27.92 41.05 27.17 39.78 27.17 39.38 25.96 38.99 27.17 37.73 27.17 38.75 27.92 38.36 29.12 39.38 28.38 40.41 29.12 40.02 27.92"/></g></g></g></svg>