<svg xmlns="http://www.w3.org/2000/svg" xmlns:xlink="http://www.w3.org/1999/xlink" viewBox="0 0 85.04 56.69"><defs><style>.cls-1{fill:none;}.cls-2{clip-path:url(#clip-path);}.cls-3{fill:#fff;}.cls-4{fill:#002377;}.cls-5{fill:#c2121f;}</style><clipPath id="clip-path" transform="translate(0 0)"><circle class="cls-1" cx="42.52" cy="28.35" r="28.35"/></clipPath></defs><title>Asset 3</title><g id="Layer_2" data-name="Layer 2"><g id="_ÎÓÈ_1" data-name="—ÎÓÈ 1"><g class="cls-2"><rect class="cls-3" width="85.04" height="56.69"/><polygon class="cls-4" points="0 37.92 0 49.76 18.17 37.92 0 37.92"/><polygon class="cls-4" points="0 7.26 0 18.77 17.67 18.77 0 7.26"/><polygon class="cls-4" points="76.27 0 50.3 0 50.3 16.92 76.27 0"/><polygon class="cls-4" points="34.74 0 8.5 0 34.74 17.11 34.74 0"/><polygon class="cls-4" points="9 56.69 34.74 56.69 34.74 39.91 9 56.69"/><polygon class="cls-4" points="85.04 18.77 85.04 7.08 67.09 18.77 85.04 18.77"/><polygon class="cls-4" points="50.3 56.69 75.77 56.69 50.3 40.09 50.3 56.69"/><polygon class="cls-4" points="85.04 49.94 85.04 37.92 66.59 37.92 85.04 49.94"/><path class="cls-5" d="M46.92,22.83H85v11H46.92V56.69h-8.8V33.86H0v-11H38.12V0h8.8ZM0,56.12v.57H5.72L34.53,37.92h-6.6ZM79.56,0,50.75,18.78h6.6L85,.73V0ZM56.92,37.92,85,56.25V52l-21.53-14ZM27.79,18.78,0,.67V5L21.19,18.78Z" transform="translate(0 0)"/></g></g></g></svg>