<svg xmlns="http://www.w3.org/2000/svg" xmlns:xlink="http://www.w3.org/1999/xlink" viewBox="0 0 62.36 62.36"><defs><style>.cls-1{fill:none;}.cls-2{clip-path:url(#clip-path);}.cls-3{fill:#fff;}.cls-4{fill:#128807;}.cls-5{fill:#f93;}.cls-6{fill:#008;}</style><clipPath id="clip-path"><circle class="cls-1" cx="31.18" cy="31.18" r="28.35"/></clipPath></defs><title>Asset 6</title><g id="Layer_2" data-name="Layer 2"><g id="_ÎÓÈ_1" data-name="—ÎÓÈ 1"><g class="cls-2"><rect class="cls-3" y="20.79" width="62.36" height="20.79"/><rect class="cls-4" y="41.58" width="62.36" height="20.79"/><rect class="cls-5" width="62.36" height="20.79"/><circle class="cls-6" cx="31.18" cy="31.18" r="8.32"/><path class="cls-3" d="M29.89,31.83a1.58,1.58,0,0,1-.08-.21l-1.27.52-4.38.91c.05.2.09.41.16.61h0a.34.34,0,0,1,.34.6s-.07,0-.11,0c.09.19.2.36.31.54l3.75-2.44Z"/><path class="cls-3" d="M30.22,30.11a1.5,1.5,0,0,1,.19-.13l-.83-1.1-2-4c-.18.1-.37.19-.53.3,0,0,.06,0,.08.06a.34.34,0,1,1-.6.34h0c-.17.14-.31.31-.46.46l3.33,3Z"/><path class="cls-3" d="M29.82,30.73a1.34,1.34,0,0,1,.08-.21L28.64,30l-3.74-2.45c-.11.19-.23.37-.32.57,0,0,.07,0,.11,0a.34.34,0,0,1-.34.6h0c-.07.18-.1.38-.15.57l4.37.92Z"/><path class="cls-3" d="M29.78,31.47a1.21,1.21,0,0,1,0-.22l-1.36.17-4.5-.25,4.5-.25,1.36.17a1.46,1.46,0,0,1,0-.22l-1.37-.19-4.25-1.4c-.06.21-.13.42-.17.63h0a.34.34,0,0,1,0,.69s-.07,0-.1,0c0,.21,0,.41,0,.62s0,.42,0,.62c0,0,.06,0,.1,0a.34.34,0,0,1,0,.69h0c0,.21.11.41.16.61l4.25-1.39Z"/><path class="cls-3" d="M30.54,29.89l.21-.08-.52-1.27-.91-4.37c-.2.05-.4.09-.6.16a.34.34,0,0,1-.6.34s0-.06,0-.09c-.19.09-.36.2-.54.31L30,28.63Z"/><path class="cls-3" d="M30,30.4a1.3,1.3,0,0,1,.13-.19L29,29.38,26,26c-.16.16-.33.31-.48.48h0a.34.34,0,0,1-.34.6s0-.06-.07-.09c-.11.16-.19.34-.29.51l4,2Z"/><path class="cls-3" d="M30.89,29.78a1.47,1.47,0,0,1,.22,0l-.17-1.36.25-4.5h0c-.21,0-.41,0-.61,0,0,0,0,.05,0,.09a.34.34,0,1,1-.69,0c-.21,0-.4.11-.61.16l1.39,4.25Z"/><path class="cls-3" d="M32,30a1.47,1.47,0,0,1,.18.12L33,29l3.33-3c-.16-.16-.3-.33-.47-.47h0a.34.34,0,1,1-.6-.34s.05,0,.08-.06c-.15-.11-.33-.19-.49-.28l-2,4Z"/><path class="cls-3" d="M32.47,30.53a1.67,1.67,0,0,1,.08.21l1.27-.52,4.37-.91c-.05-.2-.09-.4-.16-.6a.34.34,0,0,1-.34-.6s.06,0,.09,0c-.09-.19-.2-.36-.31-.54L33.73,30Z"/><path class="cls-3" d="M31.63,29.82l.21.09.53-1.26,2.46-3.74c-.19-.11-.37-.23-.58-.33,0,0,0,.06,0,.09a.34.34,0,1,1-.6-.34c-.18-.07-.38-.1-.57-.15l-.92,4.37Z"/><path class="cls-3" d="M31.26,29.74a1.66,1.66,0,0,1,.22,0l.19-1.37,1.4-4.25c-.21-.06-.41-.13-.62-.17a.34.34,0,1,1-.69,0s0-.06,0-.09l-.61,0,.25,4.5Z"/><path class="cls-3" d="M32.26,30.22a1.42,1.42,0,0,1,.13.19l1.1-.83,4-2c-.1-.18-.19-.37-.3-.53,0,0,0,.06-.06.08a.34.34,0,1,1-.34-.6h0c-.14-.17-.31-.31-.46-.46l-3,3.33Z"/><path class="cls-3" d="M32.55,31.63a1.39,1.39,0,0,1-.08.21l1.26.53,3.74,2.45c.11-.19.23-.37.32-.56,0,0-.06,0-.09,0a.34.34,0,0,1,.34-.6c.07-.18.1-.38.15-.57l-4.37-.92Z"/><path class="cls-3" d="M32.14,32.26a1.61,1.61,0,0,1-.19.13l.83,1.1,2,4c.18-.1.37-.19.54-.31,0,0-.07,0-.09-.07a.34.34,0,0,1,.6-.34s0,0,0,0c.17-.14.31-.31.46-.46l-3.33-3Z"/><path class="cls-3" d="M32.38,32a1.49,1.49,0,0,1-.13.19l1.08.84,3,3.33c.16-.16.33-.3.47-.47h0a.34.34,0,0,1,.34-.6s0,.05.06.08c.11-.16.19-.34.29-.51l-4-2Z"/><path class="cls-3" d="M32.62,31.26a1.35,1.35,0,0,1,0,.22l1.37.19,4.25,1.4c.06-.21.13-.41.17-.62a.34.34,0,0,1,0-.69s.05,0,.09,0c0-.2,0-.41,0-.61l-4.5.25Z"/><path class="cls-3" d="M38.44,30.57s-.05,0-.09,0a.34.34,0,1,1,0-.69c0-.21-.11-.4-.16-.6L34,30.7l-1.37.19a1.23,1.23,0,0,1,0,.22L34,30.94l4.5.25h0C38.48,31,38.46,30.77,38.44,30.57Z"/><path class="cls-3" d="M30.73,32.55l-.21-.09L30,33.72l-2.46,3.74c.19.11.38.24.59.33,0,0,0-.07,0-.11a.34.34,0,0,1,.6.34h0c.18.07.38.1.57.15l.92-4.37Z"/><path class="cls-3" d="M30.11,32.14A1.4,1.4,0,0,1,30,32l-1.1.83-4,2c.1.18.19.37.31.54,0,0,0-.07.07-.09a.34.34,0,0,1,.34.6h0c.14.17.31.31.46.46L29,33Z"/><path class="cls-3" d="M30.4,32.38a1.39,1.39,0,0,1-.18-.12l-.84,1.08-3.33,3c.16.16.3.33.48.48,0,0,0,0,0,0a.34.34,0,0,1,.6.34s-.06,0-.09.07c.16.11.33.19.49.28l2-4Z"/><path class="cls-3" d="M31.1,32.62a1.26,1.26,0,0,1-.22,0l-.19,1.37-1.4,4.25c.21.06.41.13.63.17v0a.34.34,0,0,1,.69,0s0,.07,0,.1c.2,0,.41,0,.62,0L30.93,34Z"/><path class="cls-3" d="M31.47,32.58a1.36,1.36,0,0,1-.22,0L31.43,34l-.25,4.5h0c.21,0,.42,0,.62,0,0,0,0-.06,0-.1a.34.34,0,0,1,.69,0v0c.21,0,.41-.11.61-.16l-1.39-4.25Z"/><path class="cls-3" d="M31.83,32.47l-.21.08.52,1.27.91,4.38c.2-.05.41-.09.61-.16h0a.34.34,0,0,1,.6-.34s0,.07,0,.11c.19-.09.36-.2.54-.31l-2.44-3.75Z"/></g></g></g></svg>